<?xml version="1.0" encoding="UTF-8"?>
<svg xmlns="http://www.w3.org/2000/svg" width="120" height="120" viewBox="0 0 120 120">
<rect width="120" height="120" fill="white" stroke="black" />
<line x1="20" y1="20" x2="20" y2="100" stroke="#e0e0e0" stroke-width="1" />
<line x1="20" y1="20" x2="100" y2="20" stroke="#e0e0e0" stroke-width="1" />
<line x1="40" y1="20" x2="40" y2="100" stroke="#e0e0e0" stroke-width="1" />
<line x1="20" y1="40" x2="100" y2="40" stroke="#e0e0e0" stroke-width="1" />
<line x1="60" y1="20" x2="60" y2="100" stroke="#e0e0e0" stroke-width="1" />
<line x1="20" y1="60" x2="100" y2="60" stroke="#e0e0e0" stroke-width="1" />
<line x1="80" y1="20" x2="80" y2="100" stroke="#e0e0e0" stroke-width="1" />
<line x1="20" y1="80" x2="100" y2="80" stroke="#e0e0e0" stroke-width="1" />
<line x1="100" y1="20" x2="100" y2="100" stroke="#e0e0e0" stroke-width="1" />
<line x1="20" y1="100" x2="100" y2="100" stroke="#e0e0e0" stroke-width="1" />
<line x1="20" y1="100" x2="20" y2="80" stroke="#e41a1c" stroke-width="2" />
<line x1="20" y1="80" x2="60" y2="80" stroke="#e41a1c" stroke-width="2" />
<line x1="60" y1="80" x2="100" y2="80" stroke="#e41a1c" stroke-width="2" />
<circle cx="20" cy="100" r="4" fill="#e41a1c" stroke="black" />
<circle cx="60" cy="80" r="4" fill="#e41a1c" stroke="black" />
<circle cx="100" cy="80" r="4" fill="#e41a1c" stroke="black" />
<text x="20" y="15" font-size="12" fill="#e41a1c">n1</text>
<line x1="40" y1="40" x2="60" y2="40" stroke="#377eb8" stroke-width="2" />
<line x1="60" y1="40" x2="60" y2="60" stroke="#377eb8" stroke-width="2" />
<line x1="60" y1="60" x2="80" y2="60" stroke="#377eb8" stroke-width="2" />
<line x1="80" y1="60" x2="100" y2="60" stroke="#377eb8" stroke-width="2" />
<line x1="80" y1="60" x2="80" y2="100" stroke="#377eb8" stroke-width="2" />
<circle cx="40" cy="40" r="4" fill="#377eb8" stroke="black" />
<circle cx="100" cy="60" r="4" fill="#377eb8" stroke="black" />
<circle cx="80" cy="100" r="4" fill="#377eb8" stroke="black" />
<circle cx="60" cy="40" r="4" fill="#377eb8" stroke="black" />
<text x="20" y="29" font-size="12" fill="#377eb8">n2</text>
<line x1="40" y1="40" x2="40" y2="60" stroke="#4daf4a" stroke-width="2" />
<line x1="40" y1="40" x2="40" y2="20" stroke="#4daf4a" stroke-width="2" />
<line x1="40" y1="20" x2="20" y2="20" stroke="#4daf4a" stroke-width="2" />
<circle cx="40" cy="40" r="4" fill="#4daf4a" stroke="black" />
<circle cx="40" cy="60" r="4" fill="#4daf4a" stroke="black" />
<circle cx="20" cy="20" r="4" fill="#4daf4a" stroke="black" />
<text x="20" y="43" font-size="12" fill="#4daf4a">n3</text>
<line x1="100" y1="60" x2="100" y2="80" stroke="#984ea3" stroke-width="2" />
<line x1="100" y1="80" x2="60" y2="80" stroke="#984ea3" stroke-width="2" />
<line x1="60" y1="80" x2="60" y2="100" stroke="#984ea3" stroke-width="2" />
<line x1="60" y1="80" x2="60" y2="60" stroke="#984ea3" stroke-width="2" />
<line x1="60" y1="60" x2="40" y2="60" stroke="#984ea3" stroke-width="2" />
<line x1="40" y1="60" x2="40" y2="40" stroke="#984ea3" stroke-width="2" />
<line x1="40" y1="40" x2="20" y2="40" stroke="#984ea3" stroke-width="2" />
<circle cx="100" cy="60" r="4" fill="#984ea3" stroke="black" />
<circle cx="20" cy="40" r="4" fill="#984ea3" stroke="black" />
<circle cx="60" cy="100" r="4" fill="#984ea3" stroke="black" />
<circle cx="40" cy="60" r="4" fill="#984ea3" stroke="black" />
<circle cx="100" cy="80" r="4" fill="#984ea3" stroke="black" />
<text x="20" y="57" font-size="12" fill="#984ea3">n4</text>
<line x1="40" y1="100" x2="40" y2="80" stroke="#ff7f00" stroke-width="2" />
<line x1="40" y1="80" x2="80" y2="80" stroke="#ff7f00" stroke-width="2" />
<line x1="40" y1="80" x2="40" y2="40" stroke="#ff7f00" stroke-width="2" />
<line x1="40" y1="40" x2="20" y2="40" stroke="#ff7f00" stroke-width="2" />
<circle cx="40" cy="100" r="4" fill="#ff7f00" stroke="black" />
<circle cx="20" cy="40" r="4" fill="#ff7f00" stroke="black" />
<circle cx="80" cy="80" r="4" fill="#ff7f00" stroke="black" />
<text x="20" y="71" font-size="12" fill="#ff7f00">n5</text>
</svg>
