<?xml version="1.0" encoding="UTF-8"?>
<svg xmlns="http://www.w3.org/2000/svg" width="120" height="120" viewBox="0 0 120 120">
<rect width="120" height="120" fill="white" stroke="black" />
<line x1="20" y1="20" x2="20" y2="100" stroke="#e0e0e0" stroke-width="1" />
<line x1="20" y1="20" x2="100" y2="20" stroke="#e0e0e0" stroke-width="1" />
<line x1="40" y1="20" x2="40" y2="100" stroke="#e0e0e0" stroke-width="1" />
<line x1="20" y1="40" x2="100" y2="40" stroke="#e0e0e0" stroke-width="1" />
<line x1="60" y1="20" x2="60" y2="100" stroke="#e0e0e0" stroke-width="1" />
<line x1="20" y1="60" x2="100" y2="60" stroke="#e0e0e0" stroke-width="1" />
<line x1="80" y1="20" x2="80" y2="100" stroke="#e0e0e0" stroke-width="1" />
<line x1="20" y1="80" x2="100" y2="80" stroke="#e0e0e0" stroke-width="1" />
<line x1="100" y1="20" x2="100" y2="100" stroke="#e0e0e0" stroke-width="1" />
<line x1="20" y1="100" x2="100" y2="100" stroke="#e0e0e0" stroke-width="1" />
<line x1="100" y1="60" x2="100" y2="80" stroke="#e41a1c" stroke-width="2" />
<line x1="100" y1="80" x2="60" y2="80" stroke="#e41a1c" stroke-width="2" />
<line x1="60" y1="80" x2="60" y2="100" stroke="#e41a1c" stroke-width="2" />
<line x1="60" y1="80" x2="60" y2="60" stroke="#e41a1c" stroke-width="2" />
<line x1="60" y1="60" x2="40" y2="60" stroke="#e41a1c" stroke-width="2" />
<line x1="40" y1="60" x2="40" y2="40" stroke="#e41a1c" stroke-width="2" />
<line x1="40" y1="40" x2="20" y2="40" stroke="#e41a1c" stroke-width="2" />
<circle cx="100" cy="60" r="4" fill="#e41a1c" stroke="black" />
<circle cx="20" cy="40" r="4" fill="#e41a1c" stroke="black" />
<circle cx="60" cy="100" r="4" fill="#e41a1c" stroke="black" />
<circle cx="40" cy="60" r="4" fill="#e41a1c" stroke="black" />
<circle cx="100" cy="80" r="4" fill="#e41a1c" stroke="black" />
<text x="20" y="15" font-size="12" fill="#e41a1c">n4</text>
</svg>
